<svg width="40" height="40" viewBox="0 0 40 40" fill="none" xmlns="http://www.w3.org/2000/svg">
<path d="M16.1195 32.824C16.1533 33.5936 16.4769 34.3266 17.2002 34.5916C17.7897 34.8076 18.6842 35 20 35C21.3158 35 22.2103 34.8076 22.7998 34.5916C23.5231 34.3266 23.8467 33.5936 23.8805 32.824C23.9347 31.5926 24 29.2302 24 25C24 20.7698 23.9347 18.4074 23.8805 17.176C23.8467 16.4064 23.5231 15.6734 22.7998 15.4084C22.2103 15.1924 21.3158 15 20 15C18.6842 15 17.7897 15.1924 17.2002 15.4084C16.4769 15.6734 16.1533 16.4064 16.1195 17.176C16.0653 18.4074 16 20.7698 16 25C16 29.2302 16.0653 31.5926 16.1195 32.824Z" fill="#017D49"/>
<path d="M28.1195 32.824C28.1533 33.5936 28.4769 34.3266 29.2002 34.5916C29.7897 34.8076 30.6842 35 32 35C33.3158 35 34.2103 34.8076 34.7998 34.5916C35.5231 34.3266 35.8467 33.5936 35.8805 32.824C35.9347 31.5926 36 29.2302 36 25C36 20.7698 35.9347 18.4074 35.8805 17.176C35.8467 16.4064 35.5231 15.6734 34.7998 15.4084C34.2103 15.1924 33.3158 15 32 15C30.6842 15 29.7897 15.1924 29.2002 15.4084C28.4769 15.6734 28.1533 16.4064 28.1195 17.176C28.0653 18.4074 28 20.7698 28 25C28 29.2302 28.0653 31.5926 28.1195 32.824Z" fill="#017D49"/>
<path d="M4.11949 32.824C4.15333 33.5936 4.47685 34.3266 5.20017 34.5916C5.78972 34.8076 6.68415 35 8 35C9.31585 35 10.2103 34.8076 10.7998 34.5916C11.5231 34.3266 11.8467 33.5936 11.8805 32.824C11.9347 31.5926 12 29.2302 12 25C12 20.7698 11.9347 18.4074 11.8805 17.176C11.8467 16.4064 11.5231 15.6734 10.7998 15.4084C10.2103 15.1924 9.31585 15 8 15C6.68416 15 5.78972 15.1924 5.20017 15.4084C4.47685 15.6734 4.15333 16.4064 4.11949 17.176C4.06535 18.4074 4 20.7698 4 25C4 29.2302 4.06535 31.5926 4.11949 32.824Z" fill="#017D49"/>
<path d="M20 17.5C29.4077 17.5 34.9546 17.2962 37.7361 17.1489C39.0234 17.0807 40 16.0154 40 14.7262V12.3886C40 11.4892 39.7102 10.6068 39.0732 9.97184C35.3366 6.24696 26.7493 1.44649 20.93 0.1762C20.3151 0.0419672 19.6849 0.0419672 19.07 0.1762C13.2507 1.44649 4.66341 6.24696 0.926791 9.97184C0.289794 10.6068 0 11.4892 0 12.3886V14.7262C0 16.0154 0.976589 17.0807 2.2639 17.1489C5.04542 17.2962 10.5923 17.5 20 17.5Z" fill="#80BA27"/>
<path d="M0.357399 33.4573C0.617264 32.7029 1.37255 32.3598 2.1692 32.3146C4.23823 32.1971 9.30336 32 20 32C30.6966 32 35.7618 32.1971 37.8308 32.3146C38.6274 32.3598 39.3827 32.7029 39.6426 33.4573C39.8351 34.0163 40 34.835 40 36C40 37.165 39.8351 37.9837 39.6426 38.5427C39.3827 39.2971 38.6274 39.6402 37.8308 39.6854C35.7618 39.8029 30.6966 40 20 40C9.30336 40 4.23823 39.8029 2.1692 39.6854C1.37255 39.6402 0.617264 39.2971 0.357399 38.5427C0.164861 37.9837 0 37.165 0 36C0 34.835 0.164861 34.0163 0.357399 33.4573Z" fill="#80BA27"/>
<circle cx="20" cy="10" r="4" fill="#017D49"/>
</svg>
