<svg width="315" height="178" viewBox="0 0 315 178" fill="none" xmlns="http://www.w3.org/2000/svg">
<path d="M279.878 173.145C279.205 173.142 278.629 172.964 278.152 172.612C277.675 172.26 277.31 171.747 277.057 171.074C276.804 170.401 276.678 169.589 276.678 168.641C276.678 167.695 276.804 166.886 277.057 166.216C277.313 165.545 277.679 165.034 278.156 164.682C278.636 164.33 279.21 164.153 279.878 164.153C280.545 164.153 281.118 164.331 281.595 164.686C282.072 165.038 282.438 165.55 282.69 166.22C282.946 166.888 283.074 167.695 283.074 168.641C283.074 169.592 282.947 170.405 282.695 171.078C282.442 171.749 282.077 172.261 281.599 172.616C281.122 172.969 280.548 173.145 279.878 173.145ZM279.878 172.007C280.469 172.007 280.93 171.719 281.263 171.142C281.598 170.565 281.766 169.732 281.766 168.641C281.766 167.916 281.689 167.304 281.536 166.804C281.385 166.301 281.168 165.92 280.884 165.662C280.602 165.401 280.267 165.27 279.878 165.27C279.29 165.27 278.828 165.56 278.493 166.139C278.158 166.719 277.989 167.553 277.986 168.641C277.986 169.368 278.061 169.983 278.212 170.486C278.365 170.986 278.582 171.365 278.864 171.624C279.145 171.879 279.483 172.007 279.878 172.007ZM287.654 173.119C287.044 173.119 286.504 173.014 286.035 172.804C285.569 172.594 285.204 172.304 284.94 171.935C284.676 171.565 284.545 171.145 284.548 170.673C284.545 170.304 284.62 169.964 284.774 169.655C284.93 169.342 285.142 169.082 285.409 168.875C285.676 168.665 285.974 168.531 286.304 168.474V168.423C285.869 168.318 285.521 168.085 285.26 167.724C284.998 167.364 284.869 166.949 284.872 166.48C284.869 166.034 284.987 165.636 285.225 165.287C285.467 164.935 285.798 164.658 286.218 164.456C286.639 164.254 287.118 164.153 287.654 164.153C288.186 164.153 288.66 164.256 289.078 164.46C289.498 164.662 289.829 164.939 290.071 165.291C290.312 165.641 290.434 166.037 290.437 166.48C290.434 166.949 290.301 167.364 290.037 167.724C289.772 168.085 289.429 168.318 289.005 168.423V168.474C289.332 168.531 289.626 168.665 289.887 168.875C290.152 169.082 290.362 169.342 290.518 169.655C290.677 169.964 290.758 170.304 290.761 170.673C290.758 171.145 290.625 171.565 290.36 171.935C290.096 172.304 289.73 172.594 289.261 172.804C288.795 173.014 288.26 173.119 287.654 173.119ZM287.654 172.041C288.015 172.041 288.328 171.982 288.592 171.862C288.856 171.74 289.061 171.571 289.206 171.355C289.35 171.136 289.424 170.881 289.427 170.588C289.424 170.284 289.345 170.016 289.189 169.783C289.035 169.55 288.826 169.366 288.562 169.233C288.298 169.099 287.995 169.033 287.654 169.033C287.311 169.033 287.005 169.099 286.738 169.233C286.471 169.366 286.261 169.55 286.108 169.783C285.954 170.016 285.879 170.284 285.882 170.588C285.879 170.881 285.948 171.136 286.091 171.355C286.235 171.571 286.441 171.74 286.708 171.862C286.975 171.982 287.291 172.041 287.654 172.041ZM287.654 167.98C287.944 167.98 288.201 167.922 288.426 167.805C288.65 167.689 288.826 167.527 288.954 167.32C289.085 167.112 289.152 166.869 289.154 166.591C289.152 166.318 289.086 166.08 288.958 165.875C288.833 165.67 288.659 165.513 288.434 165.402C288.21 165.288 287.95 165.232 287.654 165.232C287.353 165.232 287.089 165.288 286.862 165.402C286.637 165.513 286.463 165.67 286.338 165.875C286.213 166.08 286.152 166.318 286.154 166.591C286.152 166.869 286.214 167.112 286.342 167.32C286.47 167.527 286.646 167.689 286.87 167.805C287.098 167.922 287.359 167.98 287.654 167.98ZM293.264 171.918C293.031 171.918 292.831 171.835 292.663 171.67C292.496 171.503 292.412 171.301 292.412 171.065C292.412 170.832 292.496 170.634 292.663 170.469C292.831 170.301 293.031 170.217 293.264 170.217C293.497 170.217 293.697 170.301 293.865 170.469C294.033 170.634 294.116 170.832 294.116 171.065C294.116 171.222 294.077 171.365 293.997 171.496C293.92 171.624 293.818 171.726 293.69 171.803C293.562 171.879 293.42 171.918 293.264 171.918ZM293.264 167.545C293.031 167.545 292.831 167.463 292.663 167.298C292.496 167.131 292.412 166.929 292.412 166.693C292.412 166.46 292.496 166.261 292.663 166.097C292.831 165.929 293.031 165.845 293.264 165.845C293.497 165.845 293.697 165.929 293.865 166.097C294.033 166.261 294.116 166.46 294.116 166.693C294.116 166.849 294.077 166.993 293.997 167.124C293.92 167.251 293.818 167.354 293.69 167.43C293.562 167.507 293.42 167.545 293.264 167.545ZM298.964 173.145C298.291 173.142 297.716 172.964 297.239 172.612C296.761 172.26 296.396 171.747 296.143 171.074C295.891 170.401 295.764 169.589 295.764 168.641C295.764 167.695 295.891 166.886 296.143 166.216C296.399 165.545 296.766 165.034 297.243 164.682C297.723 164.33 298.297 164.153 298.964 164.153C299.632 164.153 300.204 164.331 300.682 164.686C301.159 165.038 301.524 165.55 301.777 166.22C302.033 166.888 302.16 167.695 302.16 168.641C302.16 169.592 302.034 170.405 301.781 171.078C301.528 171.749 301.163 172.261 300.686 172.616C300.209 172.969 299.635 173.145 298.964 173.145ZM298.964 172.007C299.555 172.007 300.017 171.719 300.349 171.142C300.685 170.565 300.852 169.732 300.852 168.641C300.852 167.916 300.775 167.304 300.622 166.804C300.472 166.301 300.254 165.92 299.97 165.662C299.689 165.401 299.354 165.27 298.964 165.27C298.376 165.27 297.915 165.56 297.579 166.139C297.244 166.719 297.075 167.553 297.072 168.641C297.072 169.368 297.148 169.983 297.298 170.486C297.452 170.986 297.669 171.365 297.95 171.624C298.231 171.879 298.57 172.007 298.964 172.007ZM306.831 173.145C306.157 173.142 305.582 172.964 305.105 172.612C304.627 172.26 304.262 171.747 304.009 171.074C303.757 170.401 303.63 169.589 303.63 168.641C303.63 167.695 303.757 166.886 304.009 166.216C304.265 165.545 304.632 165.034 305.109 164.682C305.589 164.33 306.163 164.153 306.831 164.153C307.498 164.153 308.071 164.331 308.548 164.686C309.025 165.038 309.39 165.55 309.643 166.22C309.899 166.888 310.027 167.695 310.027 168.641C310.027 169.592 309.9 170.405 309.647 171.078C309.394 171.749 309.029 172.261 308.552 172.616C308.075 172.969 307.501 173.145 306.831 173.145ZM306.831 172.007C307.421 172.007 307.883 171.719 308.215 171.142C308.551 170.565 308.718 169.732 308.718 168.641C308.718 167.916 308.642 167.304 308.488 166.804C308.338 166.301 308.12 165.92 307.836 165.662C307.555 165.401 307.22 165.27 306.831 165.27C306.242 165.27 305.781 165.56 305.446 166.139C305.11 166.719 304.941 167.553 304.938 168.641C304.938 169.368 305.014 169.983 305.164 170.486C305.318 170.986 305.535 171.365 305.816 171.624C306.098 171.879 306.436 172.007 306.831 172.007Z" fill="#6A6D81"/>
<path d="M15.4503 104.258C14.8717 104.258 14.3516 104.148 13.89 103.926C13.4314 103.701 13.0651 103.394 12.7912 103.003C12.5173 102.612 12.3711 102.166 12.3527 101.664H13.7376C13.7715 102.07 13.9515 102.404 14.2777 102.666C14.604 102.927 14.9948 103.058 15.4503 103.058C15.8135 103.058 16.1351 102.975 16.4152 102.809C16.6983 102.64 16.9199 102.407 17.0799 102.112C17.2431 101.816 17.3246 101.479 17.3246 101.101C17.3246 100.716 17.2415 100.373 17.0753 100.071C16.9091 99.7696 16.6798 99.5327 16.3875 99.3603C16.0982 99.188 15.7658 99.1003 15.3903 99.0972C15.1041 99.0972 14.8163 99.1464 14.527 99.2449C14.2377 99.3434 14.0038 99.4726 13.8253 99.6327L12.5189 99.4388L13.0498 94.6746H18.2479V95.898H14.2362L13.9361 98.5432H13.9915C14.1762 98.3647 14.4208 98.2154 14.7255 98.0954C15.0333 97.9754 15.3626 97.9154 15.7135 97.9154C16.289 97.9154 16.8014 98.0523 17.2507 98.3262C17.7032 98.6001 18.0586 98.9741 18.3172 99.448C18.5788 99.9189 18.708 100.461 18.7049 101.073C18.708 101.685 18.5695 102.232 18.2895 102.712C18.0125 103.192 17.6278 103.571 17.1353 103.848C16.646 104.121 16.0843 104.258 15.4503 104.258ZM23.8127 104.286C23.0833 104.283 22.46 104.091 21.943 103.709C21.4259 103.327 21.0305 102.772 20.7565 102.042C20.4826 101.313 20.3457 100.434 20.3457 99.4065C20.3457 98.3816 20.4826 97.506 20.7565 96.7797C21.0335 96.0534 21.4306 95.4994 21.9476 95.1178C22.4677 94.7361 23.0894 94.5453 23.8127 94.5453C24.5359 94.5453 25.156 94.7377 25.6731 95.1224C26.1901 95.504 26.5856 96.058 26.8595 96.7843C27.1365 97.5076 27.275 98.3816 27.275 99.4065C27.275 100.437 27.1381 101.318 26.8641 102.047C26.5902 102.773 26.1948 103.329 25.6777 103.714C25.1607 104.095 24.539 104.286 23.8127 104.286ZM23.8127 103.053C24.4528 103.053 24.9529 102.741 25.313 102.116C25.6762 101.492 25.8578 100.588 25.8578 99.4065C25.8578 98.6217 25.7747 97.9584 25.6085 97.4168C25.4453 96.872 25.2099 96.4596 24.9021 96.1796C24.5975 95.8964 24.2343 95.7548 23.8127 95.7548C23.1756 95.7548 22.6755 96.0688 22.3123 96.6966C21.9491 97.3244 21.766 98.2277 21.7629 99.4065C21.7629 100.194 21.8445 100.861 22.0076 101.405C22.1738 101.947 22.4092 102.358 22.7139 102.638C23.0186 102.915 23.3849 103.053 23.8127 103.053ZM30.3307 101.724L30.3215 100.039H30.5615L33.3868 97.0382H35.0395L31.8172 100.454H31.6002L30.3307 101.724ZM29.0612 104.129V94.6746H30.4415V104.129H29.0612ZM33.5392 104.129L31.0001 100.759L31.9511 99.7943L35.2334 104.129H33.5392Z" fill="#6A6D81"/>
<path d="M31.179 157.313C30.4496 157.31 29.8264 157.118 29.3093 156.736C28.7923 156.354 28.3968 155.799 28.1229 155.07C27.849 154.34 27.712 153.461 27.712 152.434C27.712 151.409 27.849 150.533 28.1229 149.807C28.3999 149.08 28.7969 148.526 29.3139 148.145C29.834 147.763 30.4557 147.572 31.179 147.572C31.9022 147.572 32.5224 147.765 33.0394 148.149C33.5565 148.531 33.9519 149.085 34.2259 149.811C34.5028 150.535 34.6413 151.409 34.6413 152.434C34.6413 153.465 34.5044 154.345 34.2305 155.074C33.9566 155.801 33.5611 156.356 33.044 156.741C32.527 157.122 31.9053 157.313 31.179 157.313ZM31.179 156.081C31.8191 156.081 32.3193 155.768 32.6793 155.143C33.0425 154.519 33.2241 153.615 33.2241 152.434C33.2241 151.649 33.141 150.986 32.9748 150.444C32.8117 149.899 32.5762 149.487 32.2685 149.207C31.9638 148.924 31.6006 148.782 31.179 148.782C30.5419 148.782 30.0418 149.096 29.6786 149.724C29.3155 150.352 29.1323 151.255 29.1293 152.434C29.1293 153.221 29.2108 153.888 29.3739 154.432C29.5401 154.974 29.7756 155.385 30.0803 155.665C30.3849 155.942 30.7512 156.081 31.179 156.081Z" fill="#6A6D81"/>
<path d="M9.31198 42.5618V52.0163H7.88087V43.9929H7.82547L5.5634 45.4701V44.1037L7.92242 42.5618H9.31198ZM15.2911 52.1733C14.5617 52.1702 13.9384 51.9778 13.4214 51.5962C12.9043 51.2146 12.5089 50.6591 12.2349 49.9297C11.961 49.2003 11.8241 48.3216 11.8241 47.2936C11.8241 46.2688 11.961 45.3932 12.2349 44.6669C12.5119 43.9405 12.909 43.3866 13.426 43.0049C13.9461 42.6233 14.5678 42.4325 15.2911 42.4325C16.0143 42.4325 16.6344 42.6248 17.1515 43.0096C17.6685 43.3912 18.064 43.9452 18.3379 44.6715C18.6149 45.3947 18.7534 46.2688 18.7534 47.2936C18.7534 48.3247 18.6165 49.2049 18.3425 49.9343C18.0686 50.6606 17.6732 51.2161 17.1561 51.6008C16.6391 51.9824 16.0174 52.1733 15.2911 52.1733ZM15.2911 50.9407C15.9312 50.9407 16.4313 50.6283 16.7914 50.0035C17.1546 49.3788 17.3362 48.4755 17.3362 47.2936C17.3362 46.5088 17.2531 45.8456 17.0869 45.3039C16.9237 44.7592 16.6883 44.3468 16.3805 44.0667C16.0759 43.7836 15.7127 43.642 15.2911 43.642C14.654 43.642 14.1539 43.9559 13.7907 44.5838C13.4275 45.2116 13.2444 46.1149 13.2413 47.2936C13.2413 48.0815 13.3229 48.7478 13.486 49.2926C13.6522 49.8342 13.8876 50.2451 14.1923 50.5252C14.497 50.8022 14.8633 50.9407 15.2911 50.9407ZM23.8127 52.1733C23.0833 52.1702 22.46 51.9778 21.943 51.5962C21.4259 51.2146 21.0305 50.6591 20.7565 49.9297C20.4826 49.2003 20.3457 48.3216 20.3457 47.2936C20.3457 46.2688 20.4826 45.3932 20.7565 44.6669C21.0335 43.9405 21.4306 43.3866 21.9476 43.0049C22.4677 42.6233 23.0894 42.4325 23.8127 42.4325C24.5359 42.4325 25.1561 42.6248 25.6731 43.0096C26.1901 43.3912 26.5856 43.9452 26.8595 44.6715C27.1365 45.3947 27.275 46.2688 27.275 47.2936C27.275 48.3247 27.1381 49.2049 26.8641 49.9343C26.5902 50.6606 26.1948 51.2161 25.6777 51.6008C25.1607 51.9824 24.539 52.1733 23.8127 52.1733ZM23.8127 50.9407C24.4528 50.9407 24.9529 50.6283 25.313 50.0035C25.6762 49.3788 25.8578 48.4755 25.8578 47.2936C25.8578 46.5088 25.7747 45.8456 25.6085 45.3039C25.4454 44.7592 25.2099 44.3468 24.9021 44.0667C24.5975 43.7836 24.2343 43.642 23.8127 43.642C23.1756 43.642 22.6755 43.9559 22.3123 44.5838C21.9491 45.2116 21.766 46.1149 21.7629 47.2936C21.7629 48.0815 21.8445 48.7478 22.0076 49.2926C22.1738 49.8342 22.4092 50.2451 22.7139 50.5252C23.0186 50.8022 23.3849 50.9407 23.8127 50.9407ZM30.3307 49.6111L30.3215 47.9261H30.5615L33.3868 44.9254H35.0395L31.8172 48.3416H31.6002L30.3307 49.6111ZM29.0612 52.0163V42.5618H30.4415V52.0163H29.0612ZM33.5392 52.0163L31.0001 48.6463L31.9511 47.6814L35.2334 52.0163H33.5392Z" fill="#6A6D81"/>
<path d="M138.878 174.145C138.205 174.142 137.629 173.964 137.152 173.612C136.675 173.26 136.31 172.747 136.057 172.074C135.804 171.401 135.678 170.589 135.678 169.641C135.678 168.695 135.804 167.886 136.057 167.216C136.313 166.545 136.679 166.034 137.156 165.682C137.636 165.33 138.21 165.153 138.878 165.153C139.545 165.153 140.118 165.331 140.595 165.686C141.072 166.038 141.438 166.55 141.69 167.22C141.946 167.888 142.074 168.695 142.074 169.641C142.074 170.592 141.947 171.405 141.695 172.078C141.442 172.749 141.077 173.261 140.599 173.616C140.122 173.969 139.548 174.145 138.878 174.145ZM138.878 173.007C139.469 173.007 139.93 172.719 140.263 172.142C140.598 171.565 140.766 170.732 140.766 169.641C140.766 168.916 140.689 168.304 140.536 167.804C140.385 167.301 140.168 166.92 139.884 166.662C139.602 166.401 139.267 166.27 138.878 166.27C138.29 166.27 137.828 166.56 137.493 167.139C137.158 167.719 136.989 168.553 136.986 169.641C136.986 170.368 137.061 170.983 137.212 171.486C137.365 171.986 137.582 172.365 137.864 172.624C138.145 172.879 138.483 173.007 138.878 173.007ZM146.654 174.119C146.044 174.119 145.504 174.014 145.035 173.804C144.569 173.594 144.204 173.304 143.94 172.935C143.676 172.565 143.545 172.145 143.548 171.673C143.545 171.304 143.62 170.964 143.774 170.655C143.93 170.342 144.142 170.082 144.409 169.875C144.676 169.665 144.974 169.531 145.304 169.474V169.423C144.869 169.318 144.521 169.085 144.26 168.724C143.998 168.364 143.869 167.949 143.872 167.48C143.869 167.034 143.987 166.636 144.225 166.287C144.467 165.935 144.798 165.658 145.218 165.456C145.639 165.254 146.118 165.153 146.654 165.153C147.186 165.153 147.66 165.256 148.078 165.46C148.498 165.662 148.829 165.939 149.071 166.291C149.312 166.641 149.434 167.037 149.437 167.48C149.434 167.949 149.301 168.364 149.037 168.724C148.772 169.085 148.429 169.318 148.005 169.423V169.474C148.332 169.531 148.626 169.665 148.887 169.875C149.152 170.082 149.362 170.342 149.518 170.655C149.677 170.964 149.758 171.304 149.761 171.673C149.758 172.145 149.625 172.565 149.36 172.935C149.096 173.304 148.73 173.594 148.261 173.804C147.795 174.014 147.26 174.119 146.654 174.119ZM146.654 173.041C147.015 173.041 147.328 172.982 147.592 172.862C147.856 172.74 148.061 172.571 148.206 172.355C148.35 172.136 148.424 171.881 148.427 171.588C148.424 171.284 148.345 171.016 148.189 170.783C148.035 170.55 147.826 170.366 147.562 170.233C147.298 170.099 146.995 170.033 146.654 170.033C146.311 170.033 146.005 170.099 145.738 170.233C145.471 170.366 145.261 170.55 145.108 170.783C144.954 171.016 144.879 171.284 144.882 171.588C144.879 171.881 144.948 172.136 145.091 172.355C145.235 172.571 145.441 172.74 145.708 172.862C145.975 172.982 146.291 173.041 146.654 173.041ZM146.654 168.98C146.944 168.98 147.201 168.922 147.426 168.805C147.65 168.689 147.826 168.527 147.954 168.32C148.085 168.112 148.152 167.869 148.154 167.591C148.152 167.318 148.086 167.08 147.958 166.875C147.833 166.67 147.659 166.513 147.434 166.402C147.21 166.288 146.95 166.232 146.654 166.232C146.353 166.232 146.089 166.288 145.862 166.402C145.637 166.513 145.463 166.67 145.338 166.875C145.213 167.08 145.152 167.318 145.154 167.591C145.152 167.869 145.214 168.112 145.342 168.32C145.47 168.527 145.646 168.689 145.87 168.805C146.098 168.922 146.359 168.98 146.654 168.98ZM152.264 172.918C152.031 172.918 151.831 172.835 151.663 172.67C151.496 172.503 151.412 172.301 151.412 172.065C151.412 171.832 151.496 171.634 151.663 171.469C151.831 171.301 152.031 171.217 152.264 171.217C152.497 171.217 152.697 171.301 152.865 171.469C153.033 171.634 153.116 171.832 153.116 172.065C153.116 172.222 153.077 172.365 152.997 172.496C152.92 172.624 152.818 172.726 152.69 172.803C152.562 172.879 152.42 172.918 152.264 172.918ZM152.264 168.545C152.031 168.545 151.831 168.463 151.663 168.298C151.496 168.131 151.412 167.929 151.412 167.693C151.412 167.46 151.496 167.261 151.663 167.097C151.831 166.929 152.031 166.845 152.264 166.845C152.497 166.845 152.697 166.929 152.865 167.097C153.033 167.261 153.116 167.46 153.116 167.693C153.116 167.849 153.077 167.993 152.997 168.124C152.92 168.251 152.818 168.354 152.69 168.43C152.562 168.507 152.42 168.545 152.264 168.545ZM157.964 174.145C157.291 174.142 156.716 173.964 156.239 173.612C155.761 173.26 155.396 172.747 155.143 172.074C154.891 171.401 154.764 170.589 154.764 169.641C154.764 168.695 154.891 167.886 155.143 167.216C155.399 166.545 155.766 166.034 156.243 165.682C156.723 165.33 157.297 165.153 157.964 165.153C158.632 165.153 159.204 165.331 159.682 165.686C160.159 166.038 160.524 166.55 160.777 167.22C161.033 167.888 161.16 168.695 161.16 169.641C161.16 170.592 161.034 171.405 160.781 172.078C160.528 172.749 160.163 173.261 159.686 173.616C159.209 173.969 158.635 174.145 157.964 174.145ZM157.964 173.007C158.555 173.007 159.017 172.719 159.349 172.142C159.685 171.565 159.852 170.732 159.852 169.641C159.852 168.916 159.775 168.304 159.622 167.804C159.472 167.301 159.254 166.92 158.97 166.662C158.689 166.401 158.354 166.27 157.964 166.27C157.376 166.27 156.915 166.56 156.579 167.139C156.244 167.719 156.075 168.553 156.072 169.641C156.072 170.368 156.148 170.983 156.298 171.486C156.452 171.986 156.669 172.365 156.95 172.624C157.231 172.879 157.57 173.007 157.964 173.007ZM165.83 174.145C165.157 174.142 164.582 173.964 164.105 173.612C163.627 173.26 163.262 172.747 163.009 172.074C162.757 171.401 162.63 170.589 162.63 169.641C162.63 168.695 162.757 167.886 163.009 167.216C163.265 166.545 163.632 166.034 164.109 165.682C164.589 165.33 165.163 165.153 165.83 165.153C166.498 165.153 167.071 165.331 167.548 165.686C168.025 166.038 168.39 166.55 168.643 167.22C168.899 167.888 169.027 168.695 169.027 169.641C169.027 170.592 168.9 171.405 168.647 172.078C168.394 172.749 168.029 173.261 167.552 173.616C167.075 173.969 166.501 174.145 165.83 174.145ZM165.83 173.007C166.421 173.007 166.883 172.719 167.215 172.142C167.551 171.565 167.718 170.732 167.718 169.641C167.718 168.916 167.642 168.304 167.488 167.804C167.338 167.301 167.12 166.92 166.836 166.662C166.555 166.401 166.22 166.27 165.83 166.27C165.242 166.27 164.781 166.56 164.446 167.139C164.11 167.719 163.941 168.553 163.938 169.641C163.938 170.368 164.014 170.983 164.164 171.486C164.318 171.986 164.535 172.365 164.816 172.624C165.098 172.879 165.436 173.007 165.83 173.007Z" fill="#6A6D81"/>
<path d="M50.1506 165.273V174H48.8295V166.594H48.7784L46.6903 167.957V166.696L48.8679 165.273H50.1506ZM52.6314 174V173.045L55.5845 169.986C55.8998 169.653 56.1598 169.362 56.3643 169.112C56.5717 168.859 56.7265 168.619 56.8288 168.392C56.9311 168.165 56.9822 167.923 56.9822 167.668C56.9822 167.378 56.914 167.128 56.7777 166.918C56.6413 166.705 56.4552 166.541 56.2194 166.428C55.9836 166.311 55.718 166.253 55.4226 166.253C55.1101 166.253 54.8373 166.317 54.6044 166.445C54.3714 166.572 54.1924 166.753 54.0674 166.986C53.9424 167.219 53.8799 167.491 53.8799 167.804H52.6228C52.6228 167.273 52.745 166.808 52.9893 166.411C53.2336 166.013 53.5689 165.705 53.995 165.486C54.4211 165.264 54.9055 165.153 55.4481 165.153C55.9964 165.153 56.4794 165.263 56.897 165.482C57.3174 165.697 57.6456 165.993 57.8814 166.368C58.1172 166.74 58.2351 167.161 58.2351 167.629C58.2351 167.953 58.174 168.27 58.0518 168.58C57.9325 168.889 57.7237 169.234 57.4254 169.615C57.1271 169.993 56.7123 170.452 56.1811 170.991L54.4467 172.807V172.871H58.3757V174H52.6314ZM60.9673 172.918C60.7343 172.918 60.534 172.835 60.3664 172.67C60.1988 172.503 60.115 172.301 60.115 172.065C60.115 171.832 60.1988 171.634 60.3664 171.469C60.534 171.301 60.7343 171.217 60.9673 171.217C61.2002 171.217 61.4005 171.301 61.5681 171.469C61.7357 171.634 61.8195 171.832 61.8195 172.065C61.8195 172.222 61.7798 172.365 61.7002 172.496C61.6235 172.624 61.5212 172.726 61.3934 172.803C61.2656 172.879 61.1235 172.918 60.9673 172.918ZM60.9673 168.545C60.7343 168.545 60.534 168.463 60.3664 168.298C60.1988 168.131 60.115 167.929 60.115 167.693C60.115 167.46 60.1988 167.261 60.3664 167.097C60.534 166.929 60.7343 166.845 60.9673 166.845C61.2002 166.845 61.4005 166.929 61.5681 167.097C61.7357 167.261 61.8195 167.46 61.8195 167.693C61.8195 167.849 61.7798 167.993 61.7002 168.124C61.6235 168.251 61.5212 168.354 61.3934 168.43C61.2656 168.507 61.1235 168.545 60.9673 168.545ZM66.6675 174.145C65.9942 174.142 65.4189 173.964 64.9417 173.612C64.4644 173.26 64.0993 172.747 63.8465 172.074C63.5937 171.401 63.4672 170.589 63.4672 169.641C63.4672 168.695 63.5937 167.886 63.8465 167.216C64.1022 166.545 64.4687 166.034 64.9459 165.682C65.4261 165.33 65.9999 165.153 66.6675 165.153C67.3351 165.153 67.9076 165.331 68.3849 165.686C68.8621 166.038 69.2272 166.55 69.48 167.22C69.7357 167.888 69.8636 168.695 69.8636 169.641C69.8636 170.592 69.7371 171.405 69.4843 172.078C69.2314 172.749 68.8664 173.261 68.3891 173.616C67.9118 173.969 67.338 174.145 66.6675 174.145ZM66.6675 173.007C67.2584 173.007 67.7201 172.719 68.0525 172.142C68.3877 171.565 68.5553 170.732 68.5553 169.641C68.5553 168.916 68.4786 168.304 68.3252 167.804C68.1746 167.301 67.9573 166.92 67.6732 166.662C67.392 166.401 67.0567 166.27 66.6675 166.27C66.0795 166.27 65.6178 166.56 65.2826 167.139C64.9474 167.719 64.7783 168.553 64.7755 169.641C64.7755 170.368 64.8508 170.983 65.0013 171.486C65.1547 171.986 65.3721 172.365 65.6533 172.624C65.9346 172.879 66.2726 173.007 66.6675 173.007ZM74.5336 174.145C73.8603 174.142 73.285 173.964 72.8078 173.612C72.3305 173.26 71.9654 172.747 71.7126 172.074C71.4598 171.401 71.3333 170.589 71.3333 169.641C71.3333 168.695 71.4598 167.886 71.7126 167.216C71.9683 166.545 72.3348 166.034 72.812 165.682C73.2921 165.33 73.866 165.153 74.5336 165.153C75.2012 165.153 75.7737 165.331 76.251 165.686C76.7282 166.038 77.0933 166.55 77.3461 167.22C77.6018 167.888 77.7296 168.695 77.7296 169.641C77.7296 170.592 77.6032 171.405 77.3504 172.078C77.0975 172.749 76.7325 173.261 76.2552 173.616C75.7779 173.969 75.2041 174.145 74.5336 174.145ZM74.5336 173.007C75.1245 173.007 75.5862 172.719 75.9186 172.142C76.2538 171.565 76.4214 170.732 76.4214 169.641C76.4214 168.916 76.3447 168.304 76.1913 167.804C76.0407 167.301 75.8234 166.92 75.5393 166.662C75.2581 166.401 74.9228 166.27 74.5336 166.27C73.9456 166.27 73.4839 166.56 73.1487 167.139C72.8135 167.719 72.6444 168.553 72.6416 169.641C72.6416 170.368 72.7169 170.983 72.8674 171.486C73.0208 171.986 73.2382 172.365 73.5194 172.624C73.8007 172.879 74.1387 173.007 74.5336 173.007Z" fill="#6A6D81"/>
<path d="M186.151 165.273V174H184.83V166.594H184.778L182.69 167.957V166.696L184.868 165.273H186.151ZM188.631 174V173.045L191.584 169.986C191.9 169.653 192.16 169.362 192.364 169.112C192.572 168.859 192.727 168.619 192.829 168.392C192.931 168.165 192.982 167.923 192.982 167.668C192.982 167.378 192.914 167.128 192.778 166.918C192.641 166.705 192.455 166.541 192.219 166.428C191.984 166.311 191.718 166.253 191.423 166.253C191.11 166.253 190.837 166.317 190.604 166.445C190.371 166.572 190.192 166.753 190.067 166.986C189.942 167.219 189.88 167.491 189.88 167.804H188.623C188.623 167.273 188.745 166.808 188.989 166.411C189.234 166.013 189.569 165.705 189.995 165.486C190.421 165.264 190.906 165.153 191.448 165.153C191.996 165.153 192.479 165.263 192.897 165.482C193.317 165.697 193.646 165.993 193.881 166.368C194.117 166.74 194.235 167.161 194.235 167.629C194.235 167.953 194.174 168.27 194.052 168.58C193.933 168.889 193.724 169.234 193.425 169.615C193.127 169.993 192.712 170.452 192.181 170.991L190.447 172.807V172.871H194.376V174H188.631ZM196.967 172.918C196.734 172.918 196.534 172.835 196.366 172.67C196.199 172.503 196.115 172.301 196.115 172.065C196.115 171.832 196.199 171.634 196.366 171.469C196.534 171.301 196.734 171.217 196.967 171.217C197.2 171.217 197.401 171.301 197.568 171.469C197.736 171.634 197.82 171.832 197.82 172.065C197.82 172.222 197.78 172.365 197.7 172.496C197.624 172.624 197.521 172.726 197.393 172.803C197.266 172.879 197.124 172.918 196.967 172.918ZM196.967 168.545C196.734 168.545 196.534 168.463 196.366 168.298C196.199 168.131 196.115 167.929 196.115 167.693C196.115 167.46 196.199 167.261 196.366 167.097C196.534 166.929 196.734 166.845 196.967 166.845C197.2 166.845 197.401 166.929 197.568 167.097C197.736 167.261 197.82 167.46 197.82 167.693C197.82 167.849 197.78 167.993 197.7 168.124C197.624 168.251 197.521 168.354 197.393 168.43C197.266 168.507 197.124 168.545 196.967 168.545ZM202.668 174.145C201.994 174.142 201.419 173.964 200.942 173.612C200.464 173.26 200.099 172.747 199.847 172.074C199.594 171.401 199.467 170.589 199.467 169.641C199.467 168.695 199.594 167.886 199.847 167.216C200.102 166.545 200.469 166.034 200.946 165.682C201.426 165.33 202 165.153 202.668 165.153C203.335 165.153 203.908 165.331 204.385 165.686C204.862 166.038 205.227 166.55 205.48 167.22C205.736 167.888 205.864 168.695 205.864 169.641C205.864 170.592 205.737 171.405 205.484 172.078C205.231 172.749 204.866 173.261 204.389 173.616C203.912 173.969 203.338 174.145 202.668 174.145ZM202.668 173.007C203.258 173.007 203.72 172.719 204.052 172.142C204.388 171.565 204.555 170.732 204.555 169.641C204.555 168.916 204.479 168.304 204.325 167.804C204.175 167.301 203.957 166.92 203.673 166.662C203.392 166.401 203.057 166.27 202.668 166.27C202.079 166.27 201.618 166.56 201.283 167.139C200.947 167.719 200.778 168.553 200.775 169.641C200.775 170.368 200.851 170.983 201.001 171.486C201.155 171.986 201.372 172.365 201.653 172.624C201.935 172.879 202.273 173.007 202.668 173.007ZM210.534 174.145C209.86 174.142 209.285 173.964 208.808 173.612C208.33 173.26 207.965 172.747 207.713 172.074C207.46 171.401 207.333 170.589 207.333 169.641C207.333 168.695 207.46 167.886 207.713 167.216C207.968 166.545 208.335 166.034 208.812 165.682C209.292 165.33 209.866 165.153 210.534 165.153C211.201 165.153 211.774 165.331 212.251 165.686C212.728 166.038 213.093 166.55 213.346 167.22C213.602 167.888 213.73 168.695 213.73 169.641C213.73 170.592 213.603 171.405 213.35 172.078C213.098 172.749 212.732 173.261 212.255 173.616C211.778 173.969 211.204 174.145 210.534 174.145ZM210.534 173.007C211.125 173.007 211.586 172.719 211.919 172.142C212.254 171.565 212.421 170.732 212.421 169.641C212.421 168.916 212.345 168.304 212.191 167.804C212.041 167.301 211.823 166.92 211.539 166.662C211.258 166.401 210.923 166.27 210.534 166.27C209.946 166.27 209.484 166.56 209.149 167.139C208.813 167.719 208.644 168.553 208.642 169.641C208.642 170.368 208.717 170.983 208.867 171.486C209.021 171.986 209.238 172.365 209.519 172.624C209.801 172.879 210.139 173.007 210.534 173.007Z" fill="#6A6D81"/>
<path d="M92.8778 174.145C92.2045 174.142 91.6293 173.964 91.152 173.612C90.6747 173.26 90.3097 172.747 90.0568 172.074C89.804 171.401 89.6776 170.589 89.6776 169.641C89.6776 168.695 89.804 167.886 90.0568 167.216C90.3125 166.545 90.679 166.034 91.1562 165.682C91.6364 165.33 92.2102 165.153 92.8778 165.153C93.5455 165.153 94.1179 165.331 94.5952 165.686C95.0724 166.038 95.4375 166.55 95.6903 167.22C95.946 167.888 96.0739 168.695 96.0739 169.641C96.0739 170.592 95.9474 171.405 95.6946 172.078C95.4418 172.749 95.0767 173.261 94.5994 173.616C94.1222 173.969 93.5483 174.145 92.8778 174.145ZM92.8778 173.007C93.4688 173.007 93.9304 172.719 94.2628 172.142C94.598 171.565 94.7656 170.732 94.7656 169.641C94.7656 168.916 94.6889 168.304 94.5355 167.804C94.3849 167.301 94.1676 166.92 93.8835 166.662C93.6023 166.401 93.267 166.27 92.8778 166.27C92.2898 166.27 91.8281 166.56 91.4929 167.139C91.1577 167.719 90.9886 168.553 90.9858 169.641C90.9858 170.368 91.0611 170.983 91.2116 171.486C91.3651 171.986 91.5824 172.365 91.8636 172.624C92.1449 172.879 92.483 173.007 92.8778 173.007ZM97.5223 172.295V171.23L101.294 165.273H102.133V166.841H101.6L98.903 171.111V171.179H104.072V172.295H97.5223ZM101.66 174V171.972L101.669 171.486V165.273H102.917V174H101.66ZM106.534 172.918C106.301 172.918 106.1 172.835 105.933 172.67C105.765 172.503 105.681 172.301 105.681 172.065C105.681 171.832 105.765 171.634 105.933 171.469C106.1 171.301 106.301 171.217 106.534 171.217C106.767 171.217 106.967 171.301 107.135 171.469C107.302 171.634 107.386 171.832 107.386 172.065C107.386 172.222 107.346 172.365 107.267 172.496C107.19 172.624 107.088 172.726 106.96 172.803C106.832 172.879 106.69 172.918 106.534 172.918ZM106.534 168.545C106.301 168.545 106.1 168.463 105.933 168.298C105.765 168.131 105.681 167.929 105.681 167.693C105.681 167.46 105.765 167.261 105.933 167.097C106.1 166.929 106.301 166.845 106.534 166.845C106.767 166.845 106.967 166.929 107.135 167.097C107.302 167.261 107.386 167.46 107.386 167.693C107.386 167.849 107.346 167.993 107.267 168.124C107.19 168.251 107.088 168.354 106.96 168.43C106.832 168.507 106.69 168.545 106.534 168.545ZM112.234 174.145C111.561 174.142 110.985 173.964 110.508 173.612C110.031 173.26 109.666 172.747 109.413 172.074C109.16 171.401 109.034 170.589 109.034 169.641C109.034 168.695 109.16 167.886 109.413 167.216C109.669 166.545 110.035 166.034 110.512 165.682C110.992 165.33 111.566 165.153 112.234 165.153C112.902 165.153 113.474 165.331 113.951 165.686C114.429 166.038 114.794 166.55 115.046 167.22C115.302 167.888 115.43 168.695 115.43 169.641C115.43 170.592 115.304 171.405 115.051 172.078C114.798 172.749 114.433 173.261 113.956 173.616C113.478 173.969 112.904 174.145 112.234 174.145ZM112.234 173.007C112.825 173.007 113.286 172.719 113.619 172.142C113.954 171.565 114.122 170.732 114.122 169.641C114.122 168.916 114.045 168.304 113.892 167.804C113.741 167.301 113.524 166.92 113.24 166.662C112.958 166.401 112.623 166.27 112.234 166.27C111.646 166.27 111.184 166.56 110.849 167.139C110.514 167.719 110.345 168.553 110.342 169.641C110.342 170.368 110.417 170.983 110.568 171.486C110.721 171.986 110.938 172.365 111.22 172.624C111.501 172.879 111.839 173.007 112.234 173.007ZM120.1 174.145C119.427 174.142 118.851 173.964 118.374 173.612C117.897 173.26 117.532 172.747 117.279 172.074C117.026 171.401 116.9 170.589 116.9 169.641C116.9 168.695 117.026 167.886 117.279 167.216C117.535 166.545 117.901 166.034 118.378 165.682C118.859 165.33 119.432 165.153 120.1 165.153C120.768 165.153 121.34 165.331 121.817 165.686C122.295 166.038 122.66 166.55 122.913 167.22C123.168 167.888 123.296 168.695 123.296 169.641C123.296 170.592 123.17 171.405 122.917 172.078C122.664 172.749 122.299 173.261 121.822 173.616C121.344 173.969 120.77 174.145 120.1 174.145ZM120.1 173.007C120.691 173.007 121.153 172.719 121.485 172.142C121.82 171.565 121.988 170.732 121.988 169.641C121.988 168.916 121.911 168.304 121.758 167.804C121.607 167.301 121.39 166.92 121.106 166.662C120.824 166.401 120.489 166.27 120.1 166.27C119.512 166.27 119.05 166.56 118.715 167.139C118.38 167.719 118.211 168.553 118.208 169.641C118.208 170.368 118.283 170.983 118.434 171.486C118.587 171.986 118.805 172.365 119.086 172.624C119.367 172.879 119.705 173.007 120.1 173.007Z" fill="#6A6D81"/>
<path d="M231.878 174.145C231.205 174.142 230.629 173.964 230.152 173.612C229.675 173.26 229.31 172.747 229.057 172.074C228.804 171.401 228.678 170.589 228.678 169.641C228.678 168.695 228.804 167.886 229.057 167.216C229.313 166.545 229.679 166.034 230.156 165.682C230.636 165.33 231.21 165.153 231.878 165.153C232.545 165.153 233.118 165.331 233.595 165.686C234.072 166.038 234.438 166.55 234.69 167.22C234.946 167.888 235.074 168.695 235.074 169.641C235.074 170.592 234.947 171.405 234.695 172.078C234.442 172.749 234.077 173.261 233.599 173.616C233.122 173.969 232.548 174.145 231.878 174.145ZM231.878 173.007C232.469 173.007 232.93 172.719 233.263 172.142C233.598 171.565 233.766 170.732 233.766 169.641C233.766 168.916 233.689 168.304 233.536 167.804C233.385 167.301 233.168 166.92 232.884 166.662C232.602 166.401 232.267 166.27 231.878 166.27C231.29 166.27 230.828 166.56 230.493 167.139C230.158 167.719 229.989 168.553 229.986 169.641C229.986 170.368 230.061 170.983 230.212 171.486C230.365 171.986 230.582 172.365 230.864 172.624C231.145 172.879 231.483 173.007 231.878 173.007ZM236.522 172.295V171.23L240.294 165.273H241.133V166.841H240.6L237.903 171.111V171.179H243.072V172.295H236.522ZM240.66 174V171.972L240.669 171.486V165.273H241.917V174H240.66ZM245.534 172.918C245.301 172.918 245.1 172.835 244.933 172.67C244.765 172.503 244.681 172.301 244.681 172.065C244.681 171.832 244.765 171.634 244.933 171.469C245.1 171.301 245.301 171.217 245.534 171.217C245.767 171.217 245.967 171.301 246.135 171.469C246.302 171.634 246.386 171.832 246.386 172.065C246.386 172.222 246.346 172.365 246.267 172.496C246.19 172.624 246.088 172.726 245.96 172.803C245.832 172.879 245.69 172.918 245.534 172.918ZM245.534 168.545C245.301 168.545 245.1 168.463 244.933 168.298C244.765 168.131 244.681 167.929 244.681 167.693C244.681 167.46 244.765 167.261 244.933 167.097C245.1 166.929 245.301 166.845 245.534 166.845C245.767 166.845 245.967 166.929 246.135 167.097C246.302 167.261 246.386 167.46 246.386 167.693C246.386 167.849 246.346 167.993 246.267 168.124C246.19 168.251 246.088 168.354 245.96 168.43C245.832 168.507 245.69 168.545 245.534 168.545ZM251.234 174.145C250.561 174.142 249.985 173.964 249.508 173.612C249.031 173.26 248.666 172.747 248.413 172.074C248.16 171.401 248.034 170.589 248.034 169.641C248.034 168.695 248.16 167.886 248.413 167.216C248.669 166.545 249.035 166.034 249.512 165.682C249.992 165.33 250.566 165.153 251.234 165.153C251.902 165.153 252.474 165.331 252.951 165.686C253.429 166.038 253.794 166.55 254.046 167.22C254.302 167.888 254.43 168.695 254.43 169.641C254.43 170.592 254.304 171.405 254.051 172.078C253.798 172.749 253.433 173.261 252.956 173.616C252.478 173.969 251.904 174.145 251.234 174.145ZM251.234 173.007C251.825 173.007 252.286 172.719 252.619 172.142C252.954 171.565 253.122 170.732 253.122 169.641C253.122 168.916 253.045 168.304 252.892 167.804C252.741 167.301 252.524 166.92 252.24 166.662C251.958 166.401 251.623 166.27 251.234 166.27C250.646 166.27 250.184 166.56 249.849 167.139C249.514 167.719 249.345 168.553 249.342 169.641C249.342 170.368 249.417 170.983 249.568 171.486C249.721 171.986 249.938 172.365 250.22 172.624C250.501 172.879 250.839 173.007 251.234 173.007ZM259.1 174.145C258.427 174.142 257.851 173.964 257.374 173.612C256.897 173.26 256.532 172.747 256.279 172.074C256.026 171.401 255.9 170.589 255.9 169.641C255.9 168.695 256.026 167.886 256.279 167.216C256.535 166.545 256.901 166.034 257.378 165.682C257.859 165.33 258.432 165.153 259.1 165.153C259.768 165.153 260.34 165.331 260.817 165.686C261.295 166.038 261.66 166.55 261.913 167.22C262.168 167.888 262.296 168.695 262.296 169.641C262.296 170.592 262.17 171.405 261.917 172.078C261.664 172.749 261.299 173.261 260.822 173.616C260.344 173.969 259.77 174.145 259.1 174.145ZM259.1 173.007C259.691 173.007 260.153 172.719 260.485 172.142C260.82 171.565 260.988 170.732 260.988 169.641C260.988 168.916 260.911 168.304 260.758 167.804C260.607 167.301 260.39 166.92 260.106 166.662C259.824 166.401 259.489 166.27 259.1 166.27C258.512 166.27 258.05 166.56 257.715 167.139C257.38 167.719 257.211 168.553 257.208 169.641C257.208 170.368 257.283 170.983 257.434 171.486C257.587 171.986 257.805 172.365 258.086 172.624C258.367 172.879 258.705 173.007 259.1 173.007Z" fill="#6A6D81"/>
<rect opacity="0.4" x="228.278" y="43.4161" width="36.5704" height="110.625" rx="5" fill="#D4D2D8"/>
<rect opacity="0.4" x="45.4264" y="43.4161" width="36.5704" height="110.625" rx="5" fill="#D4D2D8"/>
<rect opacity="0.4" x="136.852" y="43.4161" width="36.5704" height="110.625" rx="5" fill="#D4D2D8"/>
<rect x="91.1395" y="43.4161" width="36.5704" height="110.625" rx="5" fill="#BBD991"/>
<rect opacity="0.4" x="182.565" y="43.4161" width="36.5704" height="110.625" rx="5" fill="#D4D2D8"/>
<rect opacity="0.4" x="273.992" y="43.4161" width="36.5704" height="110.625" rx="5" fill="#D4D2D8"/>
<g filter="url(#filter0_d_1528_13350)">
<path d="M45.4264 140.569C71.0989 112.443 73.2383 146.728 90.3532 115.186C118.694 62.9551 128.434 127.071 157.102 128.9C172.882 129.906 177.212 94.1576 202.884 93.2433C228.557 92.3291 228.985 138.042 249.095 138.042C265.25 138.042 272.628 111.529 291.454 111.529C305.146 111.529 313.276 140.569 311.136 137.128" stroke="#017D49" stroke-linecap="round"/>
</g>
<g filter="url(#filter1_d_1528_13350)">
<ellipse cx="110.017" cy="95.2045" rx="4.33486" ry="4.5713" fill="#017D49"/>
</g>
<g filter="url(#filter2_d_1528_13350)">
<rect x="68.722" y="58.0443" width="78.2878" height="18.6342" rx="4" fill="white"/>
</g>
<path d="M101.712 65.8535V66.7058H93.019V65.8535H101.712ZM101.712 67.6944V68.5467H93.019V67.6944H101.712ZM100.89 62.666V71.3933H99.6753L95.2392 64.9927H95.1625V71.3933H93.8415V62.666H95.0645L99.5005 69.0751H99.5815V62.666H100.89ZM105.966 71.5126C105.577 71.5069 105.193 71.4359 104.815 71.2995C104.44 71.1632 104.099 70.9359 103.792 70.6177C103.486 70.2995 103.24 69.872 103.055 69.335C102.873 68.7981 102.782 68.1276 102.782 67.3237C102.782 66.5623 102.858 65.8862 103.008 65.2953C103.162 64.7044 103.382 64.2058 103.669 63.7995C103.956 63.3904 104.302 63.0794 104.709 62.8663C105.115 62.6532 105.571 62.5467 106.077 62.5467C106.596 62.5467 107.058 62.649 107.461 62.8535C107.865 63.058 108.192 63.3407 108.442 63.7015C108.694 64.0623 108.855 64.4728 108.923 64.933H107.623C107.535 64.5694 107.361 64.2725 107.099 64.0424C106.838 63.8123 106.497 63.6972 106.077 63.6972C105.437 63.6972 104.939 63.9757 104.581 64.5325C104.226 65.0893 104.047 65.8634 104.044 66.8549H104.108C104.258 66.6078 104.443 66.3975 104.662 66.2242C104.883 66.0481 105.13 65.9132 105.403 65.8194C105.679 65.7228 105.969 65.6745 106.273 65.6745C106.778 65.6745 107.236 65.7981 107.645 66.0453C108.057 66.2896 108.385 66.6276 108.629 67.0595C108.873 67.4913 108.996 67.9856 108.996 68.5424C108.996 69.0992 108.869 69.6035 108.616 70.0552C108.366 70.5069 108.014 70.8649 107.559 71.1291C107.105 71.3904 106.574 71.5183 105.966 71.5126ZM105.961 70.4046C106.297 70.4046 106.596 70.3222 106.861 70.1575C107.125 69.9927 107.334 69.7711 107.487 69.4927C107.64 69.2143 107.717 68.9032 107.717 68.5595C107.717 68.2242 107.642 67.9188 107.491 67.6433C107.344 67.3677 107.139 67.149 106.878 66.987C106.619 66.8251 106.324 66.7441 105.991 66.7441C105.738 66.7441 105.504 66.7924 105.288 66.889C105.075 66.9856 104.888 67.1191 104.726 67.2896C104.564 67.46 104.436 67.6561 104.342 67.8776C104.251 68.0964 104.206 68.3279 104.206 68.5722C104.206 68.899 104.281 69.2015 104.432 69.4799C104.585 69.7583 104.794 69.9828 105.058 70.1532C105.325 70.3208 105.626 70.4046 105.961 70.4046ZM113.548 71.5126C113.014 71.5126 112.534 71.4103 112.108 71.2058C111.685 70.9984 111.347 70.7143 111.094 70.3535C110.841 69.9927 110.706 69.5808 110.689 69.1177H111.967C111.999 69.4927 112.165 69.8009 112.466 70.0424C112.767 70.2839 113.128 70.4046 113.548 70.4046C113.884 70.4046 114.181 70.3279 114.439 70.1745C114.7 70.0183 114.905 69.8038 115.053 69.5311C115.203 69.2583 115.279 68.9472 115.279 68.5978C115.279 68.2427 115.202 67.9259 115.048 67.6475C114.895 67.3691 114.683 67.1504 114.413 66.9913C114.146 66.8322 113.84 66.7512 113.493 66.7484C113.229 66.7484 112.963 66.7938 112.696 66.8847C112.429 66.9757 112.213 67.095 112.048 67.2427L110.842 67.0637L111.333 62.666H116.131V63.7953H112.428L112.151 66.237H112.202C112.372 66.0722 112.598 65.9345 112.879 65.8237C113.163 65.7129 113.467 65.6575 113.791 65.6575C114.323 65.6575 114.796 65.7839 115.21 66.0367C115.628 66.2896 115.956 66.6347 116.195 67.0722C116.436 67.5069 116.556 68.0069 116.553 68.5722C116.556 69.1376 116.428 69.6419 116.169 70.085C115.913 70.5282 115.558 70.8776 115.104 71.1333C114.652 71.3862 114.134 71.5126 113.548 71.5126ZM119.418 69.1731L119.41 67.6177H119.631L122.239 64.8478H123.765L120.79 68.0012H120.59L119.418 69.1731ZM118.246 71.3933V62.666H119.52V71.3933H118.246ZM122.38 71.3933L120.036 68.2825L120.914 67.3919L123.944 71.3933H122.38Z" fill="#2A2536"/>
<path d="M9.85028 18.1029H10.9543L12.2343 15.0949H18.2343L19.4663 18.1029H20.6503L15.8823 6.77493H14.7943L9.85028 18.1029ZM17.8503 14.1349H12.6503L15.2903 7.92693L17.8503 14.1349ZM22.1634 18.1029H23.1234V6.00693H22.1634V18.1029ZM26.0072 18.1029H26.9672V6.00693H26.0072V18.1029ZM33.4152 16.6789C34.2952 17.9109 35.6072 18.3909 37.0952 18.3909C38.9352 18.3909 40.6152 17.2549 40.6152 15.2069C40.6152 10.9509 34.7752 12.9989 34.7752 9.59093C34.7752 8.15093 35.9592 7.44693 37.3192 7.44693C38.2952 7.44693 38.9992 7.83093 39.5272 8.56693L40.4392 7.91093C39.6712 6.90293 38.5832 6.48693 37.3512 6.48693C35.4472 6.48693 33.7192 7.57493 33.7192 9.59093C33.7192 13.8949 39.5592 12.0389 39.5592 15.2069C39.5592 16.5669 38.4392 17.4309 37.0152 17.4309C35.8952 17.4309 34.9832 16.9509 34.4232 16.0069L33.4152 16.6789ZM46.3538 10.7109H44.2418V8.58293H43.2818V10.7109H41.6818V11.5749H43.2818V16.3909C43.2818 17.4469 43.8098 18.2949 45.1858 18.2949C45.5538 18.2949 46.0818 18.1669 46.4338 18.0389L46.3538 17.1749C46.0178 17.3189 45.6338 17.4309 45.2658 17.4309C44.6258 17.4309 44.2418 17.0469 44.2418 16.3909V11.5749H46.3538V10.7109ZM53.8099 13.1909C53.8099 11.3189 52.6579 10.5189 50.8659 10.5189C49.9059 10.5189 48.7539 10.8869 48.0499 11.5589L48.6099 12.2149C49.2659 11.6549 50.0019 11.3829 50.8659 11.3829C52.0499 11.3829 52.9459 11.8949 52.9459 13.1749V13.6229H51.8259C50.3699 13.6229 47.7299 13.8469 47.7299 16.1029C47.7299 17.6709 49.0739 18.2949 50.3379 18.2949C51.5859 18.2949 52.3859 17.8469 52.9299 16.9029H52.9619C52.9619 17.3189 52.9939 17.7349 53.0579 18.1029H53.9539C53.8419 17.2549 53.8099 16.4389 53.8099 14.9989V13.1909ZM52.9459 14.3909V14.8869C52.9459 16.1189 52.4179 17.4309 50.3699 17.4309C49.5699 17.4309 48.6899 16.9669 48.6899 16.0549C48.6899 14.7909 50.2899 14.3909 51.8899 14.3909H52.9459ZM59.9788 10.7109H57.8668V8.58293H56.9068V10.7109H55.3068V11.5749H56.9068V16.3909C56.9068 17.4469 57.4348 18.2949 58.8108 18.2949C59.1788 18.2949 59.7068 18.1669 60.0588 18.0389L59.9788 17.1749C59.6428 17.3189 59.2588 17.4309 58.8908 17.4309C58.2508 17.4309 57.8668 17.0469 57.8668 16.3909V11.5749H59.9788V10.7109ZM61.8509 18.1029H62.8109V10.7109H61.8509V18.1029ZM61.6109 7.78293C61.6109 8.18293 61.9309 8.50293 62.3309 8.50293C62.7309 8.50293 63.0509 8.18293 63.0509 7.78293C63.0509 7.38293 62.7309 7.06293 62.3309 7.06293C61.9309 7.06293 61.6109 7.38293 61.6109 7.78293ZM64.7027 16.7909C65.2787 17.8149 66.4147 18.2949 67.6787 18.2949C69.0867 18.2949 70.3507 17.5269 70.3507 16.0069C70.3507 13.0149 65.9667 14.5669 65.9667 12.5669C65.9667 11.7989 66.8467 11.3829 67.5347 11.3829C68.3987 11.3829 68.9107 11.7509 69.2787 12.4229L70.1427 11.9109C69.6627 10.9669 68.7347 10.5189 67.5347 10.5189C66.3187 10.5189 65.0067 11.2069 65.0067 12.6469C65.0067 15.4629 69.3907 14.0389 69.3907 16.0709C69.3907 16.9189 68.5267 17.4309 67.6947 17.4309C66.8307 17.4309 65.9507 16.9989 65.5507 16.2149L64.7027 16.7909ZM75.9632 10.7109H73.8512V8.58293H72.8912V10.7109H71.2912V11.5749H72.8912V16.3909C72.8912 17.4469 73.4192 18.2949 74.7952 18.2949C75.1632 18.2949 75.6912 18.1669 76.0432 18.0389L75.9632 17.1749C75.6272 17.3189 75.2432 17.4309 74.8752 17.4309C74.2352 17.4309 73.8512 17.0469 73.8512 16.3909V11.5749H75.9632V10.7109ZM77.8353 18.1029H78.7953V10.7109H77.8353V18.1029ZM77.5953 7.78293C77.5953 8.18293 77.9153 8.50293 78.3153 8.50293C78.7153 8.50293 79.0353 8.18293 79.0353 7.78293C79.0353 7.38293 78.7153 7.06293 78.3153 7.06293C77.9153 7.06293 77.5953 7.38293 77.5953 7.78293ZM86.975 16.4069C86.479 17.0149 85.791 17.4309 84.991 17.4309C83.183 17.4309 82.063 16.0709 82.063 14.4069C82.063 12.7429 83.183 11.3829 84.991 11.3829C85.759 11.3829 86.415 11.7669 86.975 12.3749L87.743 11.7989C87.023 10.9829 86.063 10.5189 84.991 10.5189C82.719 10.5189 81.103 12.1509 81.103 14.4069C81.103 16.6629 82.719 18.2949 84.991 18.2949C86.047 18.2949 86.991 17.8789 87.711 17.0149L86.975 16.4069Z" fill="#6A6D81"/>
<rect x="247.478" y="0.445885" width="63.084" height="23.7708" rx="5" fill="white"/>
<path d="M259.376 17H263.136C265.968 17 269.088 15.112 269.088 11.336C269.088 7.56 265.968 5.672 263.136 5.672H259.376V17ZM260.528 6.728H262.768C266.224 6.728 267.84 9 267.84 11.336C267.84 13.672 266.224 15.944 262.768 15.944H260.528V6.728ZM275.283 12.408C273.491 12.408 270.627 12.568 270.627 15C270.627 16.456 271.875 17.192 273.203 17.192C274.403 17.192 275.235 16.776 275.843 15.784H275.875C275.875 16.184 275.907 16.632 275.971 17H276.995C276.931 16.6 276.867 15.896 276.867 15.32V11.976C276.867 10.152 275.603 9.32 274.131 9.32C272.723 9.32 271.651 9.704 270.963 10.408L271.603 11.16C272.243 10.584 273.011 10.28 273.891 10.28C275.187 10.28 275.811 10.92 275.811 12.216V12.408H275.283ZM275.811 13.272V13.816C275.811 15.144 275.075 16.232 273.539 16.232C272.691 16.232 271.779 15.848 271.779 14.856C271.779 13.352 274.195 13.272 275.267 13.272H275.811ZM279.74 9.512H278.412L281.484 17.096L280.94 18.536C280.62 19.384 280.236 19.88 279.5 19.88C279.212 19.88 278.94 19.832 278.7 19.704L278.588 20.728C278.908 20.824 279.244 20.84 279.564 20.84C280.86 20.84 281.468 20.104 281.916 18.952L285.66 9.512H284.38L282.092 15.704L279.74 9.512Z" fill="#6A6D81"/>
<path d="M296.848 15.714L292.277 11.1427L292.917 10.5027L296.848 14.4341L300.779 10.5027L301.419 11.1427L296.848 15.714Z" fill="#6A6D81"/>
<defs>
<filter id="filter0_d_1528_13350" x="42.9264" y="92.7298" width="271.05" height="56.3397" filterUnits="userSpaceOnUse" color-interpolation-filters="sRGB">
<feFlood flood-opacity="0" result="BackgroundImageFix"/>
<feColorMatrix in="SourceAlpha" type="matrix" values="0 0 0 0 0 0 0 0 0 0 0 0 0 0 0 0 0 0 127 0" result="hardAlpha"/>
<feOffset dy="6"/>
<feGaussianBlur stdDeviation="1"/>
<feComposite in2="hardAlpha" operator="out"/>
<feColorMatrix type="matrix" values="0 0 0 0 0 0 0 0 0 0 0 0 0 0 0 0 0 0 0.1 0"/>
<feBlend mode="normal" in2="BackgroundImageFix" result="effect1_dropShadow_1528_13350"/>
<feBlend mode="normal" in="SourceGraphic" in2="effect1_dropShadow_1528_13350" result="shape"/>
</filter>
<filter id="filter1_d_1528_13350" x="101.682" y="90.6331" width="16.6697" height="17.1426" filterUnits="userSpaceOnUse" color-interpolation-filters="sRGB">
<feFlood flood-opacity="0" result="BackgroundImageFix"/>
<feColorMatrix in="SourceAlpha" type="matrix" values="0 0 0 0 0 0 0 0 0 0 0 0 0 0 0 0 0 0 127 0" result="hardAlpha"/>
<feOffset dy="4"/>
<feGaussianBlur stdDeviation="2"/>
<feComposite in2="hardAlpha" operator="out"/>
<feColorMatrix type="matrix" values="0 0 0 0 0 0 0 0 0 0 0 0 0 0 0 0 0 0 0.25 0"/>
<feBlend mode="normal" in2="BackgroundImageFix" result="effect1_dropShadow_1528_13350"/>
<feBlend mode="normal" in="SourceGraphic" in2="effect1_dropShadow_1528_13350" result="shape"/>
</filter>
<filter id="filter2_d_1528_13350" x="53.722" y="45.0443" width="108.288" height="48.6342" filterUnits="userSpaceOnUse" color-interpolation-filters="sRGB">
<feFlood flood-opacity="0" result="BackgroundImageFix"/>
<feColorMatrix in="SourceAlpha" type="matrix" values="0 0 0 0 0 0 0 0 0 0 0 0 0 0 0 0 0 0 127 0" result="hardAlpha"/>
<feMorphology radius="2" operator="dilate" in="SourceAlpha" result="effect1_dropShadow_1528_13350"/>
<feOffset dy="2"/>
<feGaussianBlur stdDeviation="6.5"/>
<feColorMatrix type="matrix" values="0 0 0 0 0.211765 0 0 0 0 0.231373 0 0 0 0 0.392157 0 0 0 0.19 0"/>
<feBlend mode="normal" in2="BackgroundImageFix" result="effect1_dropShadow_1528_13350"/>
<feBlend mode="normal" in="SourceGraphic" in2="effect1_dropShadow_1528_13350" result="shape"/>
</filter>
</defs>
</svg>
