<svg width="54" height="40" viewBox="0 0 54 40" fill="none" xmlns="http://www.w3.org/2000/svg">
<path d="M23.8805 36.262C12.9875 39.2323 6.6472 37.3322 4.02778 36.0978C3.04986 35.6369 2.41918 34.7519 2.24181 33.6981C1.93385 31.8684 1.54245 28.1602 1.54245 21.1306C1.54245 16.4809 1.71369 13.2844 1.91876 11.1234C2.11727 9.03155 4.43128 8.12036 6.4808 8.69939C9.85513 9.6527 15.5301 10.2378 23.8805 7.96083C34.7799 4.98881 41.1208 6.94184 43.7372 8.20252C44.7128 8.67263 45.3385 9.56426 45.5156 10.6201C45.824 12.4584 46.2178 16.1774 46.2178 23.1837C46.2178 27.7681 46.0492 30.945 45.8463 33.1086C45.6477 35.2251 43.2872 36.1518 41.2158 35.5591C37.8342 34.5913 32.1784 33.9994 23.8805 36.262Z" fill="#00A5CF"/>
<path d="M30.2623 22.1205C30.2623 25.5939 27.4049 28.4096 23.8801 28.4096C20.3553 28.4096 17.4979 25.5939 17.4979 22.1205C17.4979 18.6471 20.3553 15.8313 23.8801 15.8313C27.4049 15.8313 30.2623 18.6471 30.2623 22.1205Z" fill="#9BD7BE"/>
<path fill-rule="evenodd" clip-rule="evenodd" d="M46.0785 16.6494C45.4407 16.7998 44.775 16.8795 44.0903 16.8795C39.3906 16.8795 35.5807 13.1251 35.5807 8.49393C35.5807 7.78029 35.6712 7.08747 35.8414 6.42599C39.7057 6.59696 42.2906 7.50556 43.7371 8.20255C44.7128 8.67266 45.3384 9.56428 45.5156 10.6202C45.709 11.7736 45.9362 13.6675 46.0785 16.6494ZM46.197 25.8665C45.2172 25.4786 44.1472 25.2651 43.0266 25.2651C38.3269 25.2651 34.517 29.0195 34.517 33.6507C34.517 34.0057 34.5394 34.3555 34.5829 34.6988C37.366 34.7027 39.5626 35.086 41.2158 35.5591C43.2871 36.1519 45.6476 35.2251 45.8462 33.1086C46.0069 31.3953 46.1461 29.0464 46.197 25.8665ZM11.9174 37.8198C12.0885 37.1569 12.1794 36.4624 12.1794 35.7471C12.1794 31.1159 8.36949 27.3615 3.66978 27.3615C2.98342 27.3615 2.31605 27.4416 1.67675 27.5928C1.8181 30.6262 2.04666 32.539 2.24174 33.6981C2.41911 34.7519 3.04979 35.6369 4.02771 36.0978C5.47497 36.7798 8.0581 37.6651 11.9174 37.8198ZM1.564 18.3749C2.54357 18.7626 3.61325 18.9759 4.73347 18.9759C9.43319 18.9759 13.2431 15.2215 13.2431 10.5903C13.2431 10.2353 13.2207 9.88549 13.1772 9.5421C10.3583 9.5484 8.14102 9.16848 6.48073 8.69942C4.43121 8.12039 2.1172 9.03158 1.91869 11.1235C1.75694 12.828 1.61623 15.1768 1.564 18.3749Z" fill="#9BD7BE"/>
<g filter="url(#filter0_d_32216_11878)">
<path d="M27.0716 29.9729C16.1786 32.9432 9.8383 31.0431 7.21888 29.8086C6.24096 29.3477 5.61028 28.4627 5.43291 27.4089C5.12496 25.5792 4.73355 21.871 4.73355 14.8414C4.73355 10.1918 4.90479 6.99525 5.10986 4.83428C5.30837 2.7424 7.62238 1.83121 9.67191 2.41024C13.0462 3.36355 18.7212 3.94865 27.0716 1.67168C37.971 -1.30035 44.3119 0.652683 46.9283 1.91337C47.9039 2.38348 48.5296 3.2751 48.7067 4.33098C49.0151 6.16922 49.4089 9.88825 49.4089 16.8946C49.4089 21.4789 49.2403 24.6559 49.0374 26.8194C48.8388 28.9359 46.4783 29.8627 44.4069 29.2699C41.0253 28.3022 35.3695 27.7102 27.0716 29.9729Z" fill="#00A5CF"/>
<path d="M33.4534 15.8313C33.4534 19.3047 30.596 22.1205 27.0712 22.1205C23.5464 22.1205 20.689 19.3047 20.689 15.8313C20.689 12.3579 23.5464 9.54218 27.0712 9.54218C30.596 9.54218 33.4534 12.3579 33.4534 15.8313Z" fill="#9BD7BE"/>
<path fill-rule="evenodd" clip-rule="evenodd" d="M49.2696 10.3602C48.6318 10.5106 47.9661 10.5903 47.2814 10.5903C42.5817 10.5903 38.7718 6.83598 38.7718 2.20478C38.7718 1.49113 38.8623 0.798312 39.0325 0.136841C42.8968 0.307804 45.4817 1.21641 46.9282 1.91339C47.9039 2.3835 48.5295 3.27513 48.7067 4.33101C48.9002 5.48443 49.1273 7.37835 49.2696 10.3602ZM49.3881 19.5773C48.4083 19.1894 47.3383 18.976 46.2177 18.976C41.518 18.976 37.7081 22.7303 37.7081 27.3615C37.7081 27.7165 37.7305 28.0663 37.774 28.4097C40.5571 28.4136 42.7537 28.7968 44.4069 29.2699C46.4782 29.8627 48.8387 28.936 49.0373 26.8195C49.198 25.1061 49.3372 22.7573 49.3881 19.5773ZM15.1085 31.5307C15.2796 30.8677 15.3705 30.1733 15.3705 29.4579C15.3705 24.8267 11.5606 21.0724 6.86088 21.0724C6.17453 21.0724 5.50715 21.1524 4.86785 21.3036C5.0092 24.337 5.23776 26.2499 5.43284 27.4089C5.61021 28.4627 6.24089 29.3477 7.21881 29.8086C8.66607 30.4907 11.2492 31.3759 15.1085 31.5307ZM4.7551 12.0858C5.73467 12.4734 6.80435 12.6867 7.92458 12.6867C12.6243 12.6867 16.4342 8.93237 16.4342 4.30116C16.4342 3.94617 16.4118 3.59634 16.3683 3.25295C13.5494 3.25924 11.3321 2.87933 9.67183 2.41026C7.62231 1.83123 5.3083 2.74242 5.10979 4.83431C4.94804 6.53884 4.80733 8.88768 4.7551 12.0858Z" fill="#9BD7BE"/>
</g>
<defs>
<filter id="filter0_d_32216_11878" x="0.733551" y="0.108429" width="52.6753" height="39.4458" filterUnits="userSpaceOnUse" color-interpolation-filters="sRGB">
<feFlood flood-opacity="0" result="BackgroundImageFix"/>
<feColorMatrix in="SourceAlpha" type="matrix" values="0 0 0 0 0 0 0 0 0 0 0 0 0 0 0 0 0 0 127 0" result="hardAlpha"/>
<feOffset dy="4"/>
<feGaussianBlur stdDeviation="2"/>
<feComposite in2="hardAlpha" operator="out"/>
<feColorMatrix type="matrix" values="0 0 0 0 0 0 0 0 0 0 0 0 0 0 0 0 0 0 0.25 0"/>
<feBlend mode="normal" in2="BackgroundImageFix" result="effect1_dropShadow_32216_11878"/>
<feBlend mode="normal" in="SourceGraphic" in2="effect1_dropShadow_32216_11878" result="shape"/>
</filter>
</defs>
</svg>
