<svg width="33" height="34" viewBox="0 0 33 34" fill="none" xmlns="http://www.w3.org/2000/svg">
<g clip-path="url(#clip0_32398_12429)">
<path fill-rule="evenodd" clip-rule="evenodd" d="M0 0H33V34H0V0Z" fill="#D94F00"/>
<path fill-rule="evenodd" clip-rule="evenodd" d="M18.7754 6.593H27.235V15.2225H18.7754V6.593ZM8.54829 19.5876V20.4318H10.0063V24.8981H11.0116V20.3977H12.3691V19.5535L8.54829 19.5882V19.5876ZM7.79741 20.6342V19.79C6.99087 19.4188 6.06335 19.3066 5.11367 19.79C3.55626 20.4989 3.50059 24.0093 5.05858 24.6957C5.95316 25.1571 7.81899 24.9432 8.00699 24.5378V21.7589H6.15195V22.4903H6.96872V23.9532C4.28498 25.2809 3.78799 18.9012 7.79741 20.6342ZM14.0044 22.4452H14.9648C15.76 22.4793 15.9702 24.0093 14.9319 23.9978H14.0044V22.4452ZM14.0044 20.2965H14.9648C15.76 20.4428 15.4732 21.6467 14.9319 21.6802H14.0044V20.2965ZM13.0104 19.4754V24.853H15.6498C16.9971 24.358 17.0527 22.2318 15.6498 22.0063C16.942 21.8606 17.0084 19.4413 14.7774 19.4413L13.0104 19.4754ZM17.6707 20.9829V21.7814C18.3773 21.579 19.9125 21.0164 19.7689 22.2093C18.4216 22.1191 17.5049 22.3666 17.3504 23.2212C17.0965 25.0669 19.0401 25.2467 19.8575 24.3355V24.7743H20.785V21.5339C20.5532 20.4873 19.0185 20.3526 17.6707 20.9829ZM18.4545 23.0645C18.6647 22.7829 19.3383 22.7939 19.791 22.9292V23.6381C19.0515 24.4476 17.8587 24.077 18.4551 23.0639L18.4545 23.0645ZM22.707 21.9393C22.9501 21.6692 24.2423 21.1627 24.4411 21.9393V24.7969H25.4788V21.7704C25.2579 20.5099 24.0759 20.2849 22.6406 21.1401V20.6677H21.658V24.8194H22.6957L22.707 21.9393ZM28.7368 20.6226L27.3787 22.4788L28.8146 24.7628L30.0625 24.7292L28.4835 22.5354L29.908 20.6562L28.7374 20.6226H28.7368ZM26.2524 19.2609H27.2793V24.7628H26.2518V19.2615L26.2524 19.2609Z" fill="white"/>
<path fill-rule="evenodd" clip-rule="evenodd" d="M18.7754 6.593H27.235V15.2225H18.7754V6.593Z" fill="white"/>
</g>
<defs>
<clipPath id="clip0_32398_12429">
<rect width="33" height="34" fill="white"/>
</clipPath>
</defs>
</svg>
