<svg width="39" height="42" viewBox="0 0 39 42" fill="none" xmlns="http://www.w3.org/2000/svg">
<path d="M8.59247 1.85714C8.59247 0.864743 9.39697 0.0602417 10.3894 0.0602417H28.0695C29.0619 0.0602417 29.8664 0.864742 29.8664 1.85714V2.00157C29.8664 7.87621 25.1041 12.6386 19.2295 12.6386V12.6386C13.3548 12.6386 8.59247 7.87621 8.59247 2.00157V1.85714Z" fill="#9BD7BE"/>
<path d="M38.376 29.4096C38.376 38.672 29.8038 41.9879 19.2294 41.9879C8.65508 41.9879 0.0828705 38.672 0.0828705 29.4096C0.0828705 20.1472 8.65508 8.44577 19.2294 8.44577C29.8038 8.44577 38.376 20.1472 38.376 29.4096Z" fill="#9BD7BE"/>
<path fill-rule="evenodd" clip-rule="evenodd" d="M23.9067 16.8599C23.4335 16.7211 22.9451 16.9576 22.6815 17.3743L13.6909 31.5844C13.4791 31.9148 13.2938 32.2192 13.135 32.4974C12.9938 32.7757 12.9232 33.0539 12.9232 33.3322C12.9232 33.7321 13.1438 34.0626 13.585 34.3234C13.8629 34.4708 14.1795 34.5832 14.535 34.6605C14.9873 34.7588 15.4342 34.5224 15.682 34.1315L24.7032 19.8979C24.9326 19.5327 25.1179 19.211 25.2591 18.9327C25.4003 18.6545 25.4709 18.3849 25.4709 18.1241C25.4709 17.7241 25.2238 17.4111 24.7297 17.185C24.4732 17.0539 24.1989 16.9456 23.9067 16.8599ZM17.1164 20.9803C17.1164 22.2846 16.7193 23.302 15.9251 24.0324C15.131 24.7628 14.1074 25.128 12.8544 25.128C11.5838 25.128 10.5514 24.7628 9.75721 24.0324C8.98071 23.302 8.59245 22.2846 8.59245 20.9803C8.59245 19.6934 8.98071 18.6848 9.75721 17.9544C10.5514 17.224 11.5838 16.8588 12.8544 16.8588C14.1074 16.8588 15.131 17.224 15.9251 17.9544C16.7193 18.6848 17.1164 19.6934 17.1164 20.9803ZM11.7957 20.9806C11.7957 21.5023 11.8927 21.8936 12.0869 22.1545C12.2986 22.3979 12.5545 22.5197 12.8546 22.5197C13.1546 22.5197 13.4016 22.3979 13.5958 22.1545C13.8075 21.8936 13.9134 21.5023 13.9134 20.9806C13.9134 20.4763 13.8075 20.1024 13.5958 19.8589C13.4016 19.6154 13.1546 19.4937 12.8546 19.4937C12.5545 19.4937 12.2986 19.6154 12.0869 19.8589C11.8927 20.1024 11.7957 20.4763 11.7957 20.9806ZM29.8663 30.6453C29.8663 31.9496 29.4692 32.9669 28.6751 33.6974C27.8809 34.4278 26.8573 34.793 25.6043 34.793C24.3337 34.793 23.3013 34.4278 22.5071 33.6974C21.7306 32.9669 21.3424 31.9496 21.3424 30.6453C21.3424 29.3584 21.7306 28.3497 22.5071 27.6193C23.3013 26.8889 24.3337 26.5237 25.6043 26.5237C26.8573 26.5237 27.8809 26.8889 28.6751 27.6193C29.4692 28.3497 29.8663 29.3584 29.8663 30.6453ZM24.5455 30.6452C24.5455 31.1669 24.6425 31.5582 24.8367 31.8191C25.0484 32.0625 25.3043 32.1843 25.6044 32.1843C25.9044 32.1843 26.1514 32.0625 26.3456 31.8191C26.5573 31.5582 26.6632 31.1669 26.6632 30.6452C26.6632 30.1409 26.5573 29.767 26.3456 29.5235C26.1514 29.28 25.9044 29.1583 25.6044 29.1583C25.3043 29.1583 25.0484 29.28 24.8367 29.5235C24.6425 29.767 24.5455 30.1409 24.5455 30.6452Z" fill="#00A5CF"/>
</svg>
